<svg xmlns="http://www.w3.org/2000/svg" version="1.1" viewBox="0.00 0.00 1000.00 1000.00" width="1000.00" height="1000.00">
<path stroke="#80a6ff" stroke-width="2.00" fill="none" stroke-linecap="butt" d="&#10;  M 487.60 408.96&#10;  Q 488.51 403.54 489.58 395.77&#10;  Q 494.24 362.10 503.39 329.94&#10;  Q 510.17 306.06 520.99 283.55&#10;  Q 528.58 267.75 539.79 255.07&#10;  C 553.82 239.20 572.99 232.37 592.35 244.40&#10;  Q 597.50 247.60 602.36 252.42&#10;  A 2.16 2.15 -29.9 0 0 604.42 252.97&#10;  L 635.50 244.95&#10;  A 0.58 0.58 0.0 0 0 635.88 244.15&#10;  Q 624.86 220.21 610.22 198.34&#10;  Q 596.77 178.24 578.87 161.71&#10;  Q 564.64 148.57 547.66 140.71&#10;  Q 519.49 127.66 490.14 134.65&#10;  C 470.37 139.36 452.31 150.97 438.00 165.00&#10;  Q 421.85 180.84 409.62 199.12&#10;  C 390.92 227.09 376.70 258.78 365.96 291.45&#10;  Q 345.96 352.29 338.79 418.75&#10;  Q 338.72 419.44 338.02 419.38&#10;  Q 308.66 416.89 281.38 408.19&#10;  Q 263.26 402.40 247.47 391.85&#10;  C 229.04 379.53 217.62 360.21 220.85 337.52&#10;  Q 222.68 324.66 229.25 313.02&#10;  Q 238.50 296.62 251.69 283.42&#10;  Q 267.99 267.10 285.66 254.65&#10;  C 310.78 236.94 338.65 222.07 367.00 210.13&#10;  A 0.92 0.92 0.0 0 0 367.54 209.06&#10;  L 359.53 178.03&#10;  A 0.37 0.36 -17.6 0 0 359.04 177.78&#10;  Q 289.69 203.92 231.84 241.84&#10;  Q 208.90 256.88 188.68 273.92&#10;  C 164.01 294.69 141.72 318.42 125.48 346.22&#10;  C 113.36 366.95 105.45 390.65 106.16 414.52&#10;  Q 107.03 444.06 124.03 468.28&#10;  C 138.78 489.28 160.26 505.13 183.07 516.28&#10;  Q 204.07 526.54 226.79 533.24&#10;  C 261.89 543.60 297.64 548.76 334.06 550.44&#10;  A 0.76 0.76 0.0 0 1 334.79 551.17&#10;  Q 338.27 627.97 358.55 702.45&#10;  Q 365.44 727.75 376.61 755.48&#10;  C 388.72 785.53 404.08 814.19 424.95 839.10&#10;  C 439.64 856.62 458.25 872.12 479.42 880.10&#10;  C 505.49 889.93 533.14 886.61 556.97 872.42&#10;  C 577.91 859.96 595.00 841.74 608.93 821.43&#10;  C 628.81 792.43 643.43 760.05 654.30 726.82&#10;  Q 674.65 664.62 681.64 599.13&#10;  A 0.20 0.20 0.0 0 0 681.39 598.91&#10;  L 624.71 613.53&#10;  A 1.49 1.48 86.6 0 0 623.61 614.78&#10;  Q 618.71 653.47 608.46 689.22&#10;  Q 602.06 711.54 592.62 730.36&#10;  C 586.32 742.89 573.53 762.23 557.92 762.97&#10;  Q 552.20 763.24 548.62 761.87&#10;  Q 539.63 758.42 532.74 750.28&#10;  Q 523.59 739.50 517.10 725.31&#10;  Q 510.67 711.26 506.62 698.54&#10;  Q 496.57 666.98 491.05 632.02&#10;  Q 483.90 586.71 482.43 541.32&#10;  A 0.56 0.55 -5.8 0 1 482.90 540.75&#10;  Q 578.07 525.05 666.99 487.50&#10;  Q 706.87 470.66 745.12 448.12&#10;  Q 773.73 431.26 799.44 411.18&#10;  C 824.01 391.98 846.43 370.14 864.40 344.66&#10;  C 890.80 307.21 904.47 260.85 881.77 218.07&#10;  C 870.96 197.69 852.47 180.76 832.74 168.76&#10;  C 805.06 151.91 773.71 141.46 742.02 134.96&#10;  Q 703.63 127.08 663.94 125.50&#10;  Q 663.67 125.49 663.74 125.75&#10;  L 674.50 167.47&#10;  Q 674.74 168.39 675.68 168.60&#10;  Q 697.39 173.31 716.26 182.76&#10;  C 736.27 192.79 754.96 210.34 755.88 234.26&#10;  C 756.54 251.42 749.04 267.74 738.74 281.76&#10;  Q 727.66 296.82 712.33 310.08&#10;  C 683.93 334.65 650.70 353.67 616.30 368.81&#10;  Q 554.75 395.91 487.87 409.22&#10;  A 0.23 0.22 -0.9 0 1 487.60 408.96"/>
<path fill="#ffffff" d="&#10;  M 1000.00 0.00&#10;  L 1000.00 1000.00&#10;  L 0.00 1000.00&#10;  L 0.00 0.00&#10;  L 1000.00 0.00&#10;  Z&#10;  M 487.60 408.96&#10;  Q 488.51 403.54 489.58 395.77&#10;  Q 494.24 362.10 503.39 329.94&#10;  Q 510.17 306.06 520.99 283.55&#10;  Q 528.58 267.75 539.79 255.07&#10;  C 553.82 239.20 572.99 232.37 592.35 244.40&#10;  Q 597.50 247.60 602.36 252.42&#10;  A 2.16 2.15 -29.9 0 0 604.42 252.97&#10;  L 635.50 244.95&#10;  A 0.58 0.58 0.0 0 0 635.88 244.15&#10;  Q 624.86 220.21 610.22 198.34&#10;  Q 596.77 178.24 578.87 161.71&#10;  Q 564.64 148.57 547.66 140.71&#10;  Q 519.49 127.66 490.14 134.65&#10;  C 470.37 139.36 452.31 150.97 438.00 165.00&#10;  Q 421.85 180.84 409.62 199.12&#10;  C 390.92 227.09 376.70 258.78 365.96 291.45&#10;  Q 345.96 352.29 338.79 418.75&#10;  Q 338.72 419.44 338.02 419.38&#10;  Q 308.66 416.89 281.38 408.19&#10;  Q 263.26 402.40 247.47 391.85&#10;  C 229.04 379.53 217.62 360.21 220.85 337.52&#10;  Q 222.68 324.66 229.25 313.02&#10;  Q 238.50 296.62 251.69 283.42&#10;  Q 267.99 267.10 285.66 254.65&#10;  C 310.78 236.94 338.65 222.07 367.00 210.13&#10;  A 0.92 0.92 0.0 0 0 367.54 209.06&#10;  L 359.53 178.03&#10;  A 0.37 0.36 -17.6 0 0 359.04 177.78&#10;  Q 289.69 203.92 231.84 241.84&#10;  Q 208.90 256.88 188.68 273.92&#10;  C 164.01 294.69 141.72 318.42 125.48 346.22&#10;  C 113.36 366.95 105.45 390.65 106.16 414.52&#10;  Q 107.03 444.06 124.03 468.28&#10;  C 138.78 489.28 160.26 505.13 183.07 516.28&#10;  Q 204.07 526.54 226.79 533.24&#10;  C 261.89 543.60 297.64 548.76 334.06 550.44&#10;  A 0.76 0.76 0.0 0 1 334.79 551.17&#10;  Q 338.27 627.97 358.55 702.45&#10;  Q 365.44 727.75 376.61 755.48&#10;  C 388.72 785.53 404.08 814.19 424.95 839.10&#10;  C 439.64 856.62 458.25 872.12 479.42 880.10&#10;  C 505.49 889.93 533.14 886.61 556.97 872.42&#10;  C 577.91 859.96 595.00 841.74 608.93 821.43&#10;  C 628.81 792.43 643.43 760.05 654.30 726.82&#10;  Q 674.65 664.62 681.64 599.13&#10;  A 0.20 0.20 0.0 0 0 681.39 598.91&#10;  L 624.71 613.53&#10;  A 1.49 1.48 86.6 0 0 623.61 614.78&#10;  Q 618.71 653.47 608.46 689.22&#10;  Q 602.06 711.54 592.62 730.36&#10;  C 586.32 742.89 573.53 762.23 557.92 762.97&#10;  Q 552.20 763.24 548.62 761.87&#10;  Q 539.63 758.42 532.74 750.28&#10;  Q 523.59 739.50 517.10 725.31&#10;  Q 510.67 711.26 506.62 698.54&#10;  Q 496.57 666.98 491.05 632.02&#10;  Q 483.90 586.71 482.43 541.32&#10;  A 0.56 0.55 -5.8 0 1 482.90 540.75&#10;  Q 578.07 525.05 666.99 487.50&#10;  Q 706.87 470.66 745.12 448.12&#10;  Q 773.73 431.26 799.44 411.18&#10;  C 824.01 391.98 846.43 370.14 864.40 344.66&#10;  C 890.80 307.21 904.47 260.85 881.77 218.07&#10;  C 870.96 197.69 852.47 180.76 832.74 168.76&#10;  C 805.06 151.91 773.71 141.46 742.02 134.96&#10;  Q 703.63 127.08 663.94 125.50&#10;  Q 663.67 125.49 663.74 125.75&#10;  L 674.50 167.47&#10;  Q 674.74 168.39 675.68 168.60&#10;  Q 697.39 173.31 716.26 182.76&#10;  C 736.27 192.79 754.96 210.34 755.88 234.26&#10;  C 756.54 251.42 749.04 267.74 738.74 281.76&#10;  Q 727.66 296.82 712.33 310.08&#10;  C 683.93 334.65 650.70 353.67 616.30 368.81&#10;  Q 554.75 395.91 487.87 409.22&#10;  A 0.23 0.22 -0.9 0 1 487.60 408.96&#10;  Z"/>
<path fill="#004dff" d="&#10;  M 487.60 408.96&#10;  A 0.23 0.22 -0.9 0 0 487.87 409.22&#10;  Q 554.75 395.91 616.30 368.81&#10;  C 650.70 353.67 683.93 334.65 712.33 310.08&#10;  Q 727.66 296.82 738.74 281.76&#10;  C 749.04 267.74 756.54 251.42 755.88 234.26&#10;  C 754.96 210.34 736.27 192.79 716.26 182.76&#10;  Q 697.39 173.31 675.68 168.60&#10;  Q 674.74 168.39 674.50 167.47&#10;  L 663.74 125.75&#10;  Q 663.67 125.49 663.94 125.50&#10;  Q 703.63 127.08 742.02 134.96&#10;  C 773.71 141.46 805.06 151.91 832.74 168.76&#10;  C 852.47 180.76 870.96 197.69 881.77 218.07&#10;  C 904.47 260.85 890.80 307.21 864.40 344.66&#10;  C 846.43 370.14 824.01 391.98 799.44 411.18&#10;  Q 773.73 431.26 745.12 448.12&#10;  Q 706.87 470.66 666.99 487.50&#10;  Q 578.07 525.05 482.90 540.75&#10;  A 0.56 0.55 -5.8 0 0 482.43 541.32&#10;  Q 483.90 586.71 491.05 632.02&#10;  Q 496.57 666.98 506.62 698.54&#10;  Q 510.67 711.26 517.10 725.31&#10;  Q 523.59 739.50 532.74 750.28&#10;  Q 539.63 758.42 548.62 761.87&#10;  Q 552.20 763.24 557.92 762.97&#10;  C 573.53 762.23 586.32 742.89 592.62 730.36&#10;  Q 602.06 711.54 608.46 689.22&#10;  Q 618.71 653.47 623.61 614.78&#10;  A 1.49 1.48 86.6 0 1 624.71 613.53&#10;  L 681.39 598.91&#10;  A 0.20 0.20 0.0 0 1 681.64 599.13&#10;  Q 674.65 664.62 654.30 726.82&#10;  C 643.43 760.05 628.81 792.43 608.93 821.43&#10;  C 595.00 841.74 577.91 859.96 556.97 872.42&#10;  C 533.14 886.61 505.49 889.93 479.42 880.10&#10;  C 458.25 872.12 439.64 856.62 424.95 839.10&#10;  C 404.08 814.19 388.72 785.53 376.61 755.48&#10;  Q 365.44 727.75 358.55 702.45&#10;  Q 338.27 627.97 334.79 551.17&#10;  A 0.76 0.76 0.0 0 0 334.06 550.44&#10;  C 297.64 548.76 261.89 543.60 226.79 533.24&#10;  Q 204.07 526.54 183.07 516.28&#10;  C 160.26 505.13 138.78 489.28 124.03 468.28&#10;  Q 107.03 444.06 106.16 414.52&#10;  C 105.45 390.65 113.36 366.95 125.48 346.22&#10;  C 141.72 318.42 164.01 294.69 188.68 273.92&#10;  Q 208.90 256.88 231.84 241.84&#10;  Q 289.69 203.92 359.04 177.78&#10;  A 0.37 0.36 -17.6 0 1 359.53 178.03&#10;  L 367.54 209.06&#10;  A 0.92 0.92 0.0 0 1 367.00 210.13&#10;  C 338.65 222.07 310.78 236.94 285.66 254.65&#10;  Q 267.99 267.10 251.69 283.42&#10;  Q 238.50 296.62 229.25 313.02&#10;  Q 222.68 324.66 220.85 337.52&#10;  C 217.62 360.21 229.04 379.53 247.47 391.85&#10;  Q 263.26 402.40 281.38 408.19&#10;  Q 308.66 416.89 338.02 419.38&#10;  Q 338.72 419.44 338.79 418.75&#10;  Q 345.96 352.29 365.96 291.45&#10;  C 376.70 258.78 390.92 227.09 409.62 199.12&#10;  Q 421.85 180.84 438.00 165.00&#10;  C 452.31 150.97 470.37 139.36 490.14 134.65&#10;  Q 519.49 127.66 547.66 140.71&#10;  Q 564.64 148.57 578.87 161.71&#10;  Q 596.77 178.24 610.22 198.34&#10;  Q 624.86 220.21 635.88 244.15&#10;  A 0.58 0.58 0.0 0 1 635.50 244.95&#10;  L 604.42 252.97&#10;  A 2.16 2.15 -29.9 0 1 602.36 252.42&#10;  Q 597.50 247.60 592.35 244.40&#10;  C 572.99 232.37 553.82 239.20 539.79 255.07&#10;  Q 528.58 267.75 520.99 283.55&#10;  Q 510.17 306.06 503.39 329.94&#10;  Q 494.24 362.10 489.58 395.77&#10;  Q 488.51 403.54 487.60 408.96&#10;  Z"/>
</svg>